<svg viewBox="0 0 23.153 34.7285" xmlns="http://www.w3.org/2000/svg" xmlns:xlink="http://www.w3.org/1999/xlink" width="23.152954" height="34.728485" fill="none" customFrame="#000000">
	<g id="Group">
		<path id="Vector" d="M23.1529 11.5765C23.1529 16.2466 20.3859 20.2729 16.4028 22.0998C18.0847 20.7144 19.1558 18.6127 19.1558 16.2607C19.1558 12.1289 15.8494 8.76894 11.7355 8.68518C11.6809 8.68141 11.6311 8.68141 11.5765 8.68141C11.5219 8.68141 11.472 8.68141 11.4174 8.68518C9.89082 8.768 8.68235 10.0311 8.68235 11.5755L8.68235 26.0461C8.68235 30.8395 4.79341 34.7285 0 34.7285L0 11.5765C0 5.184 5.184 0 11.5765 0C17.9689 0 23.1529 5.184 23.1529 11.5765Z" fill="rgb(0,0,0)" fill-rule="evenodd" />
		<path id="Vector" d="M2.89412 5.78824C4.49249 5.78824 5.78824 4.49249 5.78824 2.89412C5.78824 1.29574 4.49249 0 2.89412 0C1.29574 0 0 1.29574 0 2.89412C0 4.49249 1.29574 5.78824 2.89412 5.78824Z" fill="rgb(0,0,0)" fill-rule="evenodd" transform="matrix(0.7071,-0.7071,0.7071,0.7071,7.4834,11.5765)" />
	</g>
</svg>
