<svg viewBox="0 0 795 596" xmlns="http://www.w3.org/2000/svg" xmlns:xlink="http://www.w3.org/1999/xlink" width="795.000000" height="596.000000" fill="none">
	<rect id="Frame 20" width="795.000000" height="596.000000" x="0.000000" y="0.000000" />
	<g id="Group 1000015839">
		<g id="Group 1000015838">
			<g id="Group 1000015732">
				<path id="Vector 29048" d="M133.604 70.3551L0 61.8272L1.92641 3.55331L52.0078 0C58.6552 32.7332 96.7866 51.4149 114.417 54.7205C132.61 58.1317 134.789 66.5649 133.604 70.3551Z" fill="rgb(0,0,0)" fill-rule="evenodd" transform="matrix(-1,0,0,1,497.87,870.645)" />
				<path id="Vector 29049" d="M0.91624 8.10832C18.4459 4.7919 53.5052 -1.41455 53.5052 0.291039C48.8732 12.1106 48.1542 22.7815 50.0814 32.2713L0 35.8246L0.91624 8.10832Z" fill="rgb(255,255,255)" fill-rule="evenodd" transform="matrix(-1,0,0,1,495.943,838.374)" />
				<path id="Vector 29049" d="M0.91624 8.10832L0 35.8246L50.0814 32.2713C48.1542 22.7815 48.8732 12.1106 53.5052 0.291039C53.5052 -1.41455 18.4459 4.7919 0.91624 8.10832Z" fill-rule="evenodd" stroke="rgb(0,0,0)" stroke-width="2.911022" transform="matrix(-1,0,0,1,495.943,838.374)" />
				<path id="Vector 29050" d="M0.493367 8.10832C18.023 4.7919 53.0823 -1.41455 53.0823 0.291039L0 23.0327L0.493367 8.10832Z" fill="rgb(36,23,21)" fill-rule="evenodd" transform="matrix(-1,0,0,1,495.52,838.374)" />
			</g>
			<path id="Vector 29129" d="M293.457 438.674C217.494 481.449 260.27 586.913 285.345 591.338C304.658 594.746 368.149 592.792 398.92 591.338L637.134 415.074L497.745 395.899C454.97 395.899 354.228 404.454 293.457 438.674Z" fill="rgb(255,255,255)" fill-rule="evenodd" />
			<path id="Vector 29129" d="M293.457 438.674C354.228 404.454 454.97 395.899 497.745 395.899L637.134 415.074L398.92 591.338C368.149 592.792 304.658 594.746 285.345 591.338C260.27 586.913 217.494 481.449 293.457 438.674Z" fill-rule="evenodd" stroke="rgb(0,0,0)" stroke-width="2.911022" />
			<path id="Vector 29132" d="M314.106 453.152C366.616 443.122 409.244 473.965 423.994 490.64C426.457 487.195 429.122 483.789 431.998 480.44C427.464 460.527 339.181 439.14 314.106 453.152Z" fill="rgb(0,0,1)" fill-rule="evenodd" />
			<path id="Vector 29134" d="M393.596 593.52C395.46 593.439 397.239 593.358 398.92 593.278L593.486 449.312C584.915 446.413 562.823 437.494 543.029 425.009C408.733 440.923 387.451 543.98 393.596 593.52Z" fill="rgb(14,23,41)" fill-rule="evenodd" />
			<path id="Vector 29131" d="M615.745 593.277C712.357 562.302 637.132 422.176 637.132 417.014L600.994 412.042C416.912 423.405 389.576 537.6 398.918 593.277L429.984 849.191L510.037 849.191L516.919 593.277L615.745 593.277Z" fill="rgb(255,255,255)" fill-rule="evenodd" />
			<path id="Vector 29131" d="M615.745 593.277L516.919 593.277L510.037 849.191L429.984 849.191L398.918 593.277C389.576 537.6 416.912 423.405 600.994 412.042L637.132 417.014C637.132 422.176 712.357 562.302 615.745 593.277Z" fill-rule="evenodd" stroke="rgb(0,0,0)" stroke-width="2.911022" />
			<path id="Vector 29133" d="M422.781 789.857L511.633 789.857L511.985 776.758L421.191 776.758L422.781 789.857ZM427.198 826.245L510.654 826.245L510.654 810.72L425.314 810.72L427.198 826.245Z" fill="rgb(14,23,41)" fill-rule="evenodd" />
			<path id="Vector 29130" d="M497.745 540.178C509.545 551.978 515.446 580.495 516.921 593.278L527.983 593.278C525.033 578.774 514.855 547.848 497.745 540.178Z" fill="rgb(0,0,1)" fill-rule="evenodd" />
		</g>
		<rect id="Rectangle 38" width="796.000000" height="3.000000" x="0.000000" y="593.000000" fill="rgb(0,0,0)" />
		<g id="Group 1000015834">
			<g id="Group 1000015726">
				<path id="Vector 29037" d="M36.1516 129.382C40.0362 124.438 50.1362 109.253 59.4592 88.0644C57.3403 85.5922 53.3145 78.1052 54.162 67.9346C65.1801 66.2395 71.8567 42.5082 73.8177 30.8544C59.1869 22.7383 71.6543 1.08764 66.8752 0.13135C61.578 -0.928622 47.8054 4.36855 47.8054 18.1412C47.8054 31.9138 24.2087 25.4128 18.1412 22.3789C3.30972 14.9629 8.60633 32.9743 14.9629 49.9248C18.3531 55.8576 6.48784 67.2288 0.131417 72.1729C-1.56323 89.1238 13.5507 115.257 21.3195 126.204C20.2601 157.987 20.0482 221.553 27.6762 221.553C32.7614 211.383 35.4453 155.868 36.1516 129.382Z" fill="rgb(255,255,255)" fill-rule="evenodd" transform="matrix(-1,0,0,1,548.866,16.7052)" />
				<path id="Vector 29037" d="M36.1516 129.382C35.4453 155.868 32.7614 211.383 27.6762 221.553C20.0482 221.553 20.2601 157.987 21.3195 126.204C13.5507 115.257 -1.56323 89.1238 0.131417 72.1729C6.48784 67.2288 18.3531 55.8576 14.9629 49.9248C8.60633 32.9743 3.30972 14.9629 18.1412 22.3789C24.2087 25.4128 47.8054 31.9138 47.8054 18.1412C47.8054 4.36855 61.578 -0.928622 66.8752 0.13135C71.6543 1.08764 59.1869 22.7383 73.8177 30.8544C71.8567 42.5082 65.1801 66.2395 54.162 67.9346C53.3145 78.1052 57.3403 85.5922 59.4592 88.0644C50.1362 109.253 40.0362 124.438 36.1516 129.382Z" fill-rule="evenodd" stroke="rgb(0,0,0)" stroke-width="1.940681" transform="matrix(-1,0,0,1,548.866,16.7052)" />
				<g id="Group 1000015725">
					<path id="Vector 29040" d="M0 0C1.76575 1.76572 4.23779 6.78038 0 12.7132" stroke="rgb(36,23,21)" stroke-width="0.970341" transform="matrix(-1,0,0,1,503.177,49.6725)" />
					<path id="Vector 29041" d="M0 0C0.706287 3.88459 3.81395 9.74679 10.5943 2.11887" stroke="rgb(36,23,21)" stroke-width="0.970341" transform="matrix(-1,0,0,1,511.652,65.5718)" />
					<path id="Vector 29042" d="M1.59724 10.6601C0.184665 6.77549 -1.58106 -0.781808 2.65668 0.0657391" stroke="rgb(36,23,21)" stroke-width="0.970341" transform="matrix(-1,0,0,1,536.557,42.1937)" />
				</g>
				<path id="Vector 29039" d="M38.2287 22.2481C37.2947 19.0134 36.7264 15.0631 37.0988 10.5948C31.228 13.7735 21.2089 14.8331 0.0201927 0C-0.826097 11.0181 25.1399 19.423 38.2287 22.2481Z" fill="rgb(0,0,0)" fill-rule="evenodd" transform="matrix(-1,0,0,1,531.801,74.0435)" />
				<path id="Vector 29038" d="M1.85345 16.8356C-5.56259 34.846 11.3884 59.213 15.6261 66.629C9.26949 49.6786 5.03231 31.6671 18.8044 39.0832C24.7772 42.2994 48.4685 48.6181 48.4685 34.8454C48.4685 21.0728 62.2412 15.7756 67.5384 16.8356C72.3174 17.7919 59.85 39.4426 74.4809 47.5587C76.0671 48.4386 77.9718 49.1594 80.2516 49.6775C74.9544 42.2615 77.0733 43.3209 81.311 25.3105C85.5487 7.30016 66.4789 3.06296 48.4685 0.944096C30.4582 -1.17477 9.26949 -1.17477 1.85345 16.8356Z" fill="rgb(0,0,0)" fill-rule="evenodd" transform="matrix(-1,0,0,1,549.527,0)" />
			</g>
			<path id="Vector 29031" d="M5.75295 42.3774C19.3137 24.5789 77.0882 6.70975 104.28 0C102.586 16.9509 117.7 43.0836 125.468 54.0311C124.409 85.8142 124.197 149.38 131.825 149.38C136.91 139.21 139.594 83.6953 140.301 57.2094C144.185 52.2654 154.285 37.0802 163.608 15.8915C165.727 22.2481 222.936 65.6849 232.471 79.4576C242.006 93.2302 245.184 225.659 245.184 237.313C245.184 248.967 249.422 328.425 214.461 328.425C186.492 328.425 72.144 332.309 14.2284 333.722C5.75295 244.023 -7.8078 60.1758 5.75295 42.3774Z" fill="rgb(0,0,0)" fill-rule="evenodd" transform="matrix(-1,0,0,1,653.013,88.8785)" />
			<path id="Vector 29034" d="M70.7693 0C77.8322 3.21165 92.8055 18.3223 96.1957 53.0717C100.433 96.5085 114.036 111.341 125.057 111.341M135.871 113.459C144.894 118.404 164.635 122.147 171.416 97.568C179.891 66.8444 197.574 49.8934 217.337 55.1906M38.9863 11.7546C41.1051 10.8578 75.007 34.0019 78.1853 86.9736C81.3636 139.945 115.266 239.532 185.188 186.56C211.676 160.074 237.197 143.477 241.483 145.243M244.516 227.878C186.601 215.871 70.7693 202.664 70.7693 245.889C70.7693 289.114 124.447 313.542 151.286 320.353M162.94 320.032C153.405 310.856 136.878 289.537 147.049 277.672C157.219 265.806 212.85 281.909 239.394 291.444M0 60.4878C22.8835 74.6136 65.0483 119.604 50.64 186.56C37.9268 224.7 14.6946 220.815 4.66763 214.106M8.50095 266.018C22.1942 266.198 48.3093 277.947 43.224 323.498" stroke="rgb(255,255,255)" stroke-width="0.970341" transform="matrix(-1,0,0,1,652.348,98.3068)" />
			<path id="Vector 29035" d="M177.985 0L0 0" stroke="rgb(2,114,105)" stroke-width="0.970341" transform="matrix(0,1,1,0,521.188,239.308)" />
		</g>
		<g id="Group 1000015797">
			<g id="Group 1000015745">
				<path id="Vector 29053" d="M82.9788 34.2262L64.1544 0C53.8871 6.2748 31.6408 17.1131 14.5279 25.6696C-3.38774 34.6276 -4.29649 46.2054 9.3935 44.4941C2.54825 46.2054 -1.27936 58.0366 10.6992 58.0366C4.10711 63.708 20.3963 60.8887 27.8119 58.0366C23.8188 60.3183 16.9222 64.3452 19.6603 68.4524C22.3984 72.5595 63.0135 47.3462 82.9788 34.2262Z" fill="rgb(255,255,255)" fill-rule="evenodd" transform="matrix(0.932634,0.360825,-0.360825,0.932634,456.784,353.699)" />
				<path id="Vector 29054" d="M27.7199 34.2262L8.8955 0C6.50685 1.4598 3.46986 3.1666 0 5.03419L4.33067 49.0552C12.9599 43.7768 21.3808 38.3919 27.7199 34.2262Z" fill="rgb(0,0,0)" fill-rule="evenodd" transform="matrix(0.932634,0.360825,-0.360825,0.932634,508.321,373.639)" />
				<g id="Group 1000015742">
					<path id="Vector 29054" d="M0 10.2679L13.6905 0" stroke="rgb(0,0,0)" stroke-width="0.970341" transform="matrix(0.932634,0.360825,-0.360825,0.932634,465.811,408.569)" />
					<path id="Vector 29055" d="M0 13.6905L25.6696 0" stroke="rgb(0,0,0)" stroke-width="0.970341" transform="matrix(0.932634,0.360825,-0.360825,0.932634,454.536,395.033)" />
					<path id="Vector 29056" d="M0 15.4018L25.6696 0" stroke="rgb(0,0,0)" stroke-width="0.970341" transform="matrix(0.932633,0.360825,-0.360825,0.932634,455.048,384.22)" />
				</g>
			</g>
			<path id="Vector 29093" d="M0.20393 247.472C3.61187 206.961 30.7992 4.28815 77.688 0.0900162C131.887 -4.76262 102.634 188.028 73.3971 228.669L178.65 255.358L158.748 320.546C107.332 309.223 -5.43536 314.508 0.20393 247.472Z" fill="rgb(0,0,0)" fill-rule="evenodd" transform="matrix(-0.98921,-0.146503,-0.146503,0.98921,715.149,136.792)" />
			<path id="Vector 29094" d="M105.253 255.358L0 228.669C29.2367 188.028 58.4898 -4.76262 4.29096 0.0900162" stroke="rgb(255,255,255)" stroke-width="0.970341" transform="matrix(-0.98921,-0.146503,-0.146503,0.98921,642.543,126.039)" />
			<path id="Vector 29095" d="M57.6299 0C73.3329 4.87926 107.179 21.1081 111.683 44.5286M40.822 32.9875C54.0452 42.1361 83.7355 70.0395 83.7355 92.7281C83.7355 115.417 39.9557 99.2024 22.4657 91.5785M13.8807 129.626C27.6907 139.69 80.0395 154.806 95.1578 140.9M0 197.729C17.4083 191.325 65.8952 181.226 76.2086 190.74M114.888 216.721C118.726 232.439 97.9448 283.421 67.3127 283.421" stroke="rgb(255,255,255)" stroke-width="0.970341" transform="matrix(-0.981444,-0.191749,-0.191749,0.981444,716.883,165.934)" />
		</g>
		<g id="Group 1000015707">
			<path id="Vector 29018" d="M396.641 0L214.705 0C211.517 0 208.653 1.94874 207.484 4.91402L153.45 141.883C152.28 144.849 149.416 146.798 146.229 146.798L4.71368 146.798C2.11038 146.798 0 148.908 0 151.511C0 154.114 2.11038 156.225 4.71368 156.225L340.846 156.225C344.029 156.225 346.889 154.282 348.062 151.324L403.857 10.6243C405.878 5.52833 402.123 0 396.641 0Z" fill="rgb(255,255,255)" fill-rule="evenodd" transform="matrix(-1,0,0,1,611.964,279.458)" />
			<path id="Vector 29018" d="M396.641 0C402.123 0 405.878 5.52833 403.857 10.6243L348.062 151.324C346.889 154.282 344.029 156.225 340.846 156.225L4.71368 156.225C2.11038 156.225 0 154.114 0 151.511C0 148.908 2.11038 146.798 4.71368 146.798L146.229 146.798C149.416 146.798 152.28 144.849 153.45 141.883L207.484 4.91402C208.653 1.94874 211.517 0 214.705 0L396.641 0Z" fill-rule="evenodd" stroke="rgb(0,0,0)" stroke-width="2.911022" transform="matrix(-1,0,0,1,611.964,279.458)" />
			<path id="Vector 29020" d="M59.8511 2.67101L0 146.797L4.0423 146.797C7.17668 146.797 10.0035 144.913 11.2085 142.019L67.8521 5.99825C69.0406 3.14449 66.9438 0 63.8525 0C62.1015 0 60.5226 1.05393 59.8511 2.67101Z" fill="rgb(0,0,0)" fill-rule="evenodd" transform="matrix(-1,0,0,1,463.502,279.458)" />
			<path id="Vector 29019" d="M348.062 151.324L403.857 10.6243C405.878 5.52833 402.123 0 396.641 0L382.613 0C381.458 0 380.319 0.25941 379.27 0.742438C374.304 3.02945 366.008 6.62503 352.234 13.5848C306.142 36.8729 300.32 86.3603 310.024 110.619C317.89 130.285 213.911 150.613 173.059 156.225L340.846 156.225C344.029 156.225 346.889 154.282 348.062 151.324Z" fill="rgb(0,0,0)" fill-rule="evenodd" transform="matrix(-1,0,0,1,611.964,279.458)" />
			<ellipse id="Ellipse 8327" rx="11.573646" ry="13.309691" cx="11.5736456" cy="13.3096914" fill="rgb(0,0,0)" transform="matrix(-0.936312,0.351169,0.351169,0.936312,332.862,327.975)" />
		</g>
	</g>
</svg>
